<svg width="87" height="24" viewBox="0 0 87 24" fill="none" xmlns="http://www.w3.org/2000/svg">
<g clip-path="url(#clip0_773_2693)">
<path d="M22.6402 14.4423L3.37651 23.7662C1.48624 24.6795 -0.531455 22.7892 0.339342 20.899L3.22784 14.591C3.42607 14.1521 3.56058 13.699 3.63138 13.2317H6.32872L7.11456 13.8689L5.8827 14.6122C5.62784 14.7822 5.6066 15.122 5.86146 15.2919C6.54111 15.7804 7.9004 16.4813 9.06854 15.8016L10.3854 14.9308L13.6986 14.6547C13.6986 14.6547 15.7588 14.4636 16.8208 12.9768C17.0119 12.722 17.0119 12.3822 16.8208 12.1273C15.7588 10.6406 13.6986 10.4494 13.6986 10.4494L10.3854 10.1945L9.06854 9.32374C7.9004 8.62286 6.54111 9.34498 5.86146 9.83348C5.6066 9.98215 5.62784 10.3432 5.8827 10.4919L7.11456 11.2352L6.32872 11.8724H3.65262C3.59598 11.4052 3.47562 10.945 3.29155 10.4919L0.190669 3.18569C-0.63765 1.27419 1.46501 -0.594839 3.31279 0.382152L22.7039 10.5344C24.3181 11.3839 24.2756 13.6565 22.6402 14.4423Z" fill="url(#paint0_linear_773_2693)"/>
<path d="M28.9844 22.7729V1.06667H38.6281C40.7161 1.06667 42.4526 1.77987 43.8376 3.20628C45.2227 4.61202 45.9152 6.29683 45.9152 8.26072C45.9152 9.76982 45.4811 11.1135 44.6128 12.2919C43.7446 13.4702 42.6179 14.2661 41.2329 14.6796L46.1943 22.7729H42.0391L37.2947 15.1447H32.6434V22.7729H28.9844ZM38.4731 11.9198C39.5687 11.9198 40.4887 11.5683 41.2329 10.8655C41.9771 10.1419 42.3492 9.23233 42.3492 8.13669C42.3492 7.08239 42.0081 6.19347 41.3259 5.46993C40.6437 4.74639 39.7444 4.38462 38.6281 4.38462H32.6434V11.9198H38.4731Z" fill="#4A148C"/>
<path d="M49.2482 22.7729V1.06667H52.9692V22.7729H49.2482Z" fill="#4A148C"/>
<path d="M59.171 4.07453C61.3209 1.92458 63.9257 0.849609 66.9852 0.849609C69.2179 0.849609 71.2024 1.44911 72.9389 2.64812C74.6754 3.82646 75.9778 5.41825 76.846 7.42348L73.311 8.38476C72.7322 7.14441 71.8846 6.16246 70.7683 5.43892C69.652 4.71538 68.391 4.35361 66.9852 4.35361C64.8973 4.35361 63.1505 5.08749 61.7447 6.55524C60.339 8.02299 59.6361 9.8215 59.6361 11.9508C59.6361 14.0594 60.3287 15.8476 61.7137 17.3153C63.1195 18.7624 64.8766 19.4859 66.9852 19.4859C68.639 19.4859 70.0861 19.0001 71.3265 18.0285C72.5668 17.0569 73.3937 15.7235 73.8072 14.0284L67.0473 14.0594L66.9852 10.8965H77.4042V12.2609C77.4042 15.3411 76.4119 17.9045 74.4274 19.9511C72.4635 21.9976 69.9828 23.0209 66.9852 23.0209C63.9257 23.0209 61.3209 21.9356 59.171 19.765C57.0211 17.5944 55.9461 14.9896 55.9461 11.9508C55.9461 8.87057 57.0211 6.24515 59.171 4.07453Z" fill="#4A148C"/>
<path d="M80.3781 22.7729V1.06667H84.0992V22.7729H80.3781Z" fill="#4A148C"/>
</g>
<defs>
<linearGradient id="paint0_linear_773_2693" x1="-8.00049" y1="11.9998" x2="28.9995" y2="11.9998" gradientUnits="userSpaceOnUse">
<stop stop-color="#692C90"/>
<stop offset="1" stop-color="#4F2D87"/>
</linearGradient>
<clipPath id="clip0_773_2693">
<rect width="86.2301" height="24" fill="white"/>
</clipPath>
</defs>
</svg>
